ffmpeg version N-98513-g2c1cc326e9 Copyright (c) 2000-2020 the FFmpeg developers
  built with gcc 8 (GCC)
  configuration: --prefix=/usr/local/ffmpegtoolkit --bindir=/usr/local/ffmpegtoolkit/bin --pkg-config-flags=--static --extra-libs=-lpthread --extra-libs=-lm --extra-cflags='-I/usr/local/include -I/usr/local/cuda/include -I/opt/intel/mediasdk/include -I/include' --extra-ldflags='-L/usr/local/lib -L/usr/local/cuda/lib64 -L/opt/intel/mediasdk/lib64 -L/opt/intel/mediasdk/plugins' --disable-debug --disable-indev=sndio --disable-outdev=sndio --enable-fontconfig --enable-gray --enable-gpl --enable-gmp --enable-libgme --enable-libvmaf --enable-libopenjpeg --enable-librubberband --enable-libzvbi --enable-libdav1d --enable-libspeex --enable-version3 --arch=x86_64 --enable-libmfx --enable-opencl --enable-nonfree --enable-runtime-cpudetect --enable-shared --enable-pthreads --enable-libopencore-amrnb --enable-libopencore-amrwb --enable-libsoxr --enable-libmp3lame --enable-libfdk-aac --enable-vaapi --enable-libfreetype --enable-libfribidi --enable-libzimg --enable-libopus --enable-libtheora --enable-libvorbis --enable-libvpx --enable-libx264 --enable-libx265 --enable-libaom --enable-libxvid --enable-libwebp --enable-postproc --enable-swscale --enable-avfilter --enable-libass --enable-libxml2
  libavutil      56. 55.100 / 56. 55.100
  libavcodec     58. 96.100 / 58. 96.100
  libavformat    58. 48.100 / 58. 48.100
  libavdevice    58. 11.101 / 58. 11.101
  libavfilter     7. 87.100 /  7. 87.100
  libswscale      5.  8.100 /  5.  8.100
  libswresample   3.  8.100 /  3.  8.100
  libpostproc    55.  8.100 / 55.  8.100
Input #0, mov,mp4,m4a,3gp,3g2,mj2, from '/www/wwwroot/cts.zhua.eu/upload/original/6108f0fc7fd5d.mp4':
  Metadata:
    major_brand     : isom
    minor_version   : 512
    compatible_brands: isomiso2avc1mp41
    encoder         : Lavf58.76.100
    comment         : fmoptim
  Duration: 00:00:29.33, start: 0.000000, bitrate: 1836 kb/s
    Stream #0:0(und): Video: h264 (High) (avc1 / 0x31637661), yuv420p(tv, bt709), 1280x720 [SAR 1:1 DAR 16:9], 1703 kb/s, 20 fps, 20 tbr, 10240 tbn, 40 tbc (default)
    Metadata:
      handler_name    : Core Media Video
    Stream #0:1(eng): Audio: aac (LC) (mp4a / 0x6134706D), 44100 Hz, stereo, fltp, 128 kb/s (default)
    Metadata:
      handler_name    : Core Media Audio
Stream mapping:
  Stream #0:0 -> #0:0 (h264 (native) -> h264 (libx264))
  Stream #0:1 -> #0:1 (aac (native) -> aac (native))
Press [q] to stop, [?] for help
[libx264 @ 0x2235e00] using SAR=1/1
[libx264 @ 0x2235e00] using cpu capabilities: MMX2 SSE2Fast SSSE3 SSE4.2 AVX FMA3 BMI2 AVX2
[libx264 @ 0x2235e00] profile High, level 3.1, 4:2:0, 8-bit
[libx264 @ 0x2235e00] 264 - core 161 r3018 db0d417 - H.264/MPEG-4 AVC codec - Copyleft 2003-2020 - http://www.videolan.org/x264.html - options: cabac=1 ref=1 deblock=1:0:0 analyse=0x3:0x113 me=hex subme=2 psy=1 psy_rd=1.00:0.00 mixed_ref=0 me_range=16 chroma_me=1 trellis=0 8x8dct=1 cqm=0 deadzone=21,11 fast_pskip=1 chroma_qp_offset=0 threads=22 lookahead_threads=5 sliced_threads=0 nr=0 decimate=1 interlaced=0 bluray_compat=0 constrained_intra=0 bframes=3 b_pyramid=2 b_adapt=1 b_bias=0 direct=1 weightb=1 open_gop=0 weightp=1 keyint=250 keyint_min=20 scenecut=40 intra_refresh=0 rc_lookahead=10 rc=crf mbtree=1 crf=23.0 qcomp=0.60 qpmin=0 qpmax=69 qpstep=4 vbv_maxrate=700 vbv_bufsize=1400 crf_max=0.0 nal_hrd=none filler=0 ip_ratio=1.40 aq=1:1.00
Output #0, mp4, to 'cloud/20210803/5XqHCJAKqa/5XqHCJAKqa.mp4':
  Metadata:
    major_brand     : isom
    minor_version   : 512
    compatible_brands: isomiso2avc1mp41
    comment         : fmoptim
    encoder         : Lavf58.48.100
    Stream #0:0(und): Video: h264 (libx264) (avc1 / 0x31637661), yuv420p, 1280x720 [SAR 1:1 DAR 16:9], q=-1--1, 20 fps, 10240 tbn, 20 tbc (default)
    Metadata:
      handler_name    : Core Media Video
      encoder         : Lavc58.96.100 libx264
    Side data:
      cpb: bitrate max/min/avg: 700000/0/0 buffer size: 1400000 vbv_delay: N/A
    Stream #0:1(eng): Audio: aac (LC) (mp4a / 0x6134706D), 44100 Hz, stereo, fltp, 128 kb/s (default)
    Metadata:
      handler_name    : Core Media Audio
      encoder         : Lavc58.96.100 aac
frame=  161 fps=0.0 q=31.0 size=     512kB time=00:00:08.73 bitrate= 480.5kbits/s speed=17.4x    frame=  343 fps=342 q=28.0 size=    1280kB time=00:00:17.83 bitrate= 588.0kbits/s speed=17.8x    frame=  523 fps=348 q=32.0 size=    2304kB time=00:00:26.81 bitrate= 703.8kbits/s speed=17.8x    [mp4 @ 0x2219200] Starting second pass: moving the moov atom to the beginning of the file
frame=  586 fps=345 q=-1.0 Lsize=    2922kB time=00:00:29.35 bitrate= 815.5kbits/s speed=17.3x    
video:2444kB audio:459kB subtitle:0kB other streams:0kB global headers:0kB muxing overhead: 0.672790%
[libx264 @ 0x2235e00] frame I:5     Avg QP:19.93  size: 28141
[libx264 @ 0x2235e00] frame P:207   Avg QP:29.35  size:  9420
[libx264 @ 0x2235e00] frame B:374   Avg QP:31.51  size:  1099
[libx264 @ 0x2235e00] consecutive B-frames:  8.7% 14.3% 12.8% 64.2%
[libx264 @ 0x2235e00] mb I  I16..4: 45.1% 29.4% 25.5%
[libx264 @ 0x2235e00] mb P  I16..4:  2.5%  6.9%  1.1%  P16..4: 27.0% 12.7%  6.5%  0.0%  0.0%    skip:43.3%
[libx264 @ 0x2235e00] mb B  I16..4:  0.2%  0.3%  0.0%  B16..8:  9.4%  1.8%  0.1%  direct: 0.8%  skip:87.5%  L0:38.3% L1:52.4% BI: 9.3%
[libx264 @ 0x2235e00] 8x8 transform intra:59.2% inter:43.8%
[libx264 @ 0x2235e00] coded y,uvDC,uvAC intra: 45.2% 36.9% 4.0% inter: 4.9% 3.0% 0.0%
[libx264 @ 0x2235e00] i16 v,h,dc,p: 59% 18% 15%  9%
[libx264 @ 0x2235e00] i8 v,h,dc,ddl,ddr,vr,hd,vl,hu: 21% 27% 21%  3%  6%  5%  7%  4%  5%
[libx264 @ 0x2235e00] i4 v,h,dc,ddl,ddr,vr,hd,vl,hu: 21% 25% 14%  5%  8%  6%  9%  5%  6%
[libx264 @ 0x2235e00] i8c dc,h,v,p: 60% 18% 18%  4%
[libx264 @ 0x2235e00] Weighted P-Frames: Y:1.4% UV:1.0%
[libx264 @ 0x2235e00] kb/s:683.04
[aac @ 0x2226100] Qavg: 328.524
